Coordinates
version=1
nRows=17
nColumns=40
inDegrees=yes

Units are S.I. units (second, meters, Newtons, ...)
If the header above contains a line with 'inDegrees', this indicates whether rotational values are in degrees (yes) or radians (no).

endheader
time	pelvis_tilt	pelvis_list	pelvis_rotation	pelvis_tx	pelvis_ty	pelvis_tz	hip_flexion_r	hip_adduction_r	hip_rotation_r	knee_angle_r	knee_angle_r_beta	ankle_angle_r	subtalar_angle_r	mtp_angle_r	hip_flexion_l	hip_adduction_l	hip_rotation_l	knee_angle_l	knee_angle_l_beta	ankle_angle_l	subtalar_angle_l	mtp_angle_l	lumbar_extension	lumbar_bending	lumbar_rotation	arm_flex_r	arm_add_r	arm_rot_r	elbow_flex_r	pro_sup_r	wrist_flex_r	wrist_dev_r	arm_flex_l	arm_add_l	arm_rot_l	elbow_flex_l	pro_sup_l	wrist_flex_l	wrist_dev_l
      7.90000000	     -6.02341257	      8.81904301	    -10.90465109	      0.05153857	      1.31285728	      0.01855697	     52.90597567	     -4.93572884	     12.54306462	     90.84047166	      1.58546532	    -16.75020242	    -32.86696483	      0.00000000	     61.51301590	     -6.45077951	     -6.24598860	     64.03557314	      1.11763159	    -12.83222273	    -28.11950851	      0.00000000	    -36.87539491	     -8.60921122	     -1.72556758	     57.60893945	      6.65461947	    -23.54071674	     51.53171494	     83.23975509	      0.00000000	      0.00000000	     66.85952333	     -2.58207712	     -9.36345553	     49.39251755	     85.97186224	      0.00000000	      0.00000000
      7.91700000	     -6.10989143	      8.46400975	    -11.65865660	      0.05144153	      1.31263348	      0.01909446	     55.65087351	     -3.54784156	     13.49425768	     95.43754997	      1.66569948	    -17.31077907	    -32.72844858	      0.00000000	     57.74915708	     -6.60337737	     -7.07333107	     58.56616194	      1.02217236	    -13.52998131	    -28.62354258	      0.00000000	    -36.57139386	     -8.39657882	     -0.81559213	     57.46516742	      6.78406275	    -23.52046529	     51.57268019	     83.06665654	      0.00000000	      0.00000000	     66.54681082	     -2.65518588	     -9.41947391	     49.23472939	     85.55587219	      0.00000000	      0.00000000
      7.93300000	     -6.32050564	      7.92236647	    -12.23730922	      0.05145711	      1.31222027	      0.01936681	     58.59739093	     -2.09760465	     14.04515037	     99.74734357	      1.74091957	    -17.95756843	    -32.48566096	      0.00000000	     53.83183161	     -6.74373539	     -7.77256295	     52.96492950	      0.92441241	    -14.31462021	    -28.57547368	      0.00000000	    -36.16861110	     -7.93335383	      0.07046772	     57.21578323	      6.87327528	    -23.38493296	     51.62160805	     82.99419235	      0.00000000	      0.00000000	     66.07625912	     -2.69275663	     -9.58075642	     49.16047355	     85.23314164	      0.00000000	      0.00000000
      7.95000000	     -6.63258157	      7.40619546	    -12.78022440	      0.05148368	      1.31161627	      0.01953183	     61.55862819	     -0.63335097	     14.44612763	    103.46332923	      1.80577575	    -18.10140521	    -32.22778565	      0.00000000	     50.13408560	     -6.88519350	     -8.54762635	     47.78267351	      0.83396498	    -15.18032027	    -28.34840655	      0.00000000	    -35.68869220	     -7.45191245	      0.95958155	     56.97363149	      6.93482092	    -23.25256419	     51.66220581	     83.00853440	      0.00000000	      0.00000000	     65.66727233	     -2.82311832	     -9.52384420	     49.01330364	     85.02090834	      0.00000000	      0.00000000
      7.96700000	     -7.03796967	      6.94126986	    -13.21010811	      0.05141040	      1.31095402	      0.01967625	     64.44483574	      0.81980857	     14.69525890	    106.53512319	      1.85938867	    -17.39305463	    -32.00619506	      0.00000000	     46.66913691	     -6.98843555	     -9.35691537	     43.06212557	      0.75157587	    -16.13594940	    -27.70083737	      0.00000000	    -35.15461859	     -6.94970397	      1.77128659	     56.74252360	      6.87955704	    -23.01577524	     51.67867060	     83.08958685	      0.00000000	      0.00000000	     65.32654793	     -3.16216628	     -9.01605749	     48.79427336	     84.90352462	      0.00000000	      0.00000000
      7.98300000	     -7.24258282	      6.86226942	    -14.02921477	      0.05134156	      1.31038741	      0.02018464	     67.20352820	      2.41387098	     15.41295121	    109.10363578	      1.90421767	    -16.06055513	    -31.38170749	      0.00000000	     42.99213196	     -7.01410029	    -10.90273437	     38.69662574	      0.67538353	    -16.81135592	    -26.93059072	      0.00000000	    -34.76331065	     -7.03542299	      2.69678868	     56.45412576	      6.75991890	    -22.81676476	     51.84148212	     83.47379469	      0.00000000	      0.00000000	     65.19668402	     -3.80941424	     -7.76097942	     48.41052909	     84.82192191	      0.00000000	      0.00000000
      8.00000000	     -7.64966538	      6.53484281	    -14.47359970	      0.05133425	      1.30967824	      0.02037656	     69.90393650	      3.83541573	     15.50554533	    111.00274550	      1.93736339	    -14.50994113	    -31.17879132	      0.00000000	     40.14473282	     -7.08438246	    -11.90624248	     35.38253362	      0.61754171	    -17.85726330	    -25.89901563	      0.00000000	    -34.28791324	     -6.66898359	      3.37718882	     56.22710649	      6.75530879	    -22.53512329	     51.93451887	     83.74135482	      0.00000000	      0.00000000	     64.93984294	     -4.33017663	     -6.95796322	     48.31320077	     84.60821559	      0.00000000	      0.00000000
      8.01700000	     -8.00133672	      6.40856019	    -15.00052836	      0.05130419	      1.30902045	      0.02077471	     72.47577130	      5.14235111	     15.60629476	    112.25020267	      1.95913562	    -12.75103320	    -31.28643766	      0.00000000	     37.91510528	     -7.11259082	    -13.03949499	     33.35427112	      0.58214185	    -18.88594052	    -25.21432284	      0.00000000	    -33.91998976	     -6.53993621	      3.93286147	     56.12498776	      6.79724106	    -22.24853421	     51.99897096	     83.81204448	      0.00000000	      0.00000000	     64.74701294	     -4.87460761	     -6.25429451	     48.40440660	     84.28986053	      0.00000000	      0.00000000
      8.03300000	     -8.31796709	      6.39258725	    -15.40529219	      0.05119636	      1.30852899	      0.02103170	     74.87428153	      6.23651295	     15.59156432	    112.86765365	      1.96991218	    -10.82309947	    -31.70033635	      0.00000000	     36.26310503	     -7.02300580	    -13.93068856	     32.52074288	      0.56759404	    -19.74793328	    -24.74717748	      0.00000000	    -33.65894252	     -6.47471888	      4.26654387	     56.10377053	      6.88398924	    -22.02171701	     52.09399356	     83.73630681	      0.00000000	      0.00000000	     64.61216887	     -5.35370876	     -5.76945613	     48.62689863	     83.99770727	      0.00000000	      0.00000000
      8.05000000	     -8.44431735	      6.36849834	    -15.59106088	      0.05130438	      1.30832347	      0.02103724	     76.85874412	      7.00443616	     15.39053041	    112.86436025	      1.96985469	     -9.22992023	    -32.04144825	      0.00000000	     35.00934529	     -6.84122509	    -14.45814965	     32.74620682	      0.57152913	    -20.27401845	    -24.45798000	      0.00000000	    -33.61699825	     -6.36767413	      4.40457348	     56.10022843	      6.98836485	    -21.85686737	     52.15555967	     83.56693302	      0.00000000	      0.00000000	     64.51981718	     -5.65591982	     -5.56082886	     48.80401342	     83.70454092	      0.00000000	      0.00000000
      8.06700000	     -8.58600814	      6.41377871	    -16.10334435	      0.05129536	      1.30809757	      0.02140476	     78.67993658	      8.04187987	     15.14751678	    112.20698082	      1.95838126	     -7.82127120	    -32.23815677	      0.00000000	     34.44433097	     -7.01365292	    -15.38834981	     34.36118064	      0.59971574	    -20.66536439	    -24.57440457	      0.00000000	    -33.53574156	     -6.59645894	      4.71635346	     56.20940905	      7.14810307	    -21.76025682	     52.09973738	     83.48631075	      0.00000000	      0.00000000	     64.24533970	     -6.04131218	     -5.30861267	     49.43556598	     83.27246608	      0.00000000	      0.00000000
      8.08300000	     -8.58594544	      6.35961292	    -16.36410033	      0.05130161	      1.30827298	      0.02138784	     80.08245372	      8.75860088	     14.65288199	    110.85885634	      1.93485205	     -7.13146687	    -32.55254885	      0.00000000	     34.37660814	     -7.17688836	    -15.71747462	     37.13995150	      0.64821444	    -20.93829797	    -24.96405199	      0.00000000	    -33.68568601	     -6.67331337	      4.83591089	     56.38326748	      7.33702038	    -21.72283879	     52.00701698	     83.13648183	      0.00000000	      0.00000000	     64.02985567	     -6.17095967	     -5.49919472	     49.98613782	     82.51680659	      0.00000000	      0.00000000
      8.10000000	     -8.15777148	      6.63037324	    -16.27884298	      0.05148277	      1.30897276	      0.02116510	     80.57716817	      8.83033861	     14.61762750	    108.95939604	      1.90170021	     -6.36863493	    -32.46538411	      0.00000000	     34.29012380	     -6.86072170	    -15.85585731	     40.33008990	      0.70389286	    -21.28753844	    -24.69419699	      0.00000000	    -34.22381873	     -6.97503727	      4.46737623	     56.49180078	      7.42013500	    -21.69614280	     52.13284970	     82.94734456	      0.00000000	      0.00000000	     64.12216486	     -6.17758142	     -5.63653500	     50.19025505	     82.24904498	      0.00000000	      0.00000000
      8.11700000	     -8.39853881	      6.43404110	    -16.33429834	      0.05142491	      1.30884373	      0.02113608	     81.05593610	      9.13319209	     13.99012918	    106.22882724	      1.85404280	     -5.70932734	    -32.69695392	      0.00000000	     35.27868655	     -7.41581058	    -15.88461624	     44.56103829	      0.77773684	    -20.88590138	    -24.80687886	      0.00000000	    -34.07220892	     -6.69317704	      4.49486942	     56.73842343	      7.63062760	    -21.78750362	     51.84905621	     83.51596892	      0.00000000	      0.00000000	     63.90034286	     -6.14845209	     -6.24165626	     50.56756220	     82.38378850	      0.00000000	      0.00000000
      8.13300000	     -7.98472709	      6.77980266	    -16.30785224	      0.05151327	      1.30936208	      0.02111819	     80.45424398	      8.94413719	     14.14655091	    102.98884957	      1.79749452	     -5.10795420	    -32.63791753	      0.00000000	     35.96459508	     -7.32918365	    -16.12350138	     49.07106536	      0.85645166	    -20.81530048	    -24.82066062	      0.00000000	    -34.46165388	     -7.00560054	      4.11264621	     56.98303660	      7.72268106	    -21.88169840	     51.66843155	     83.53832206	      0.00000000	      0.00000000	     64.12547434	     -6.04447336	     -6.53158725	     50.38050048	     82.34222449	      0.00000000	      0.00000000
      8.15000000	     -7.71595791	      6.93670578	    -16.20706801	      0.05151294	      1.30986563	      0.02102920	     79.45987082	      8.65306855	     14.03684767	     99.31355348	      1.73334850	     -4.90437651	    -32.66308991	      0.00000000	     37.06372387	     -7.52769139	    -16.08168986	     53.92896162	      0.94123794	    -20.59968920	    -24.79398243	      0.00000000	    -34.72203566	     -7.12136811	      3.83995692	     57.20912260	      7.79407031	    -22.05881004	     51.45494544	     83.61217923	      0.00000000	      0.00000000	     64.31244833	     -5.88782235	     -6.80741618	     50.20703159	     82.33932091	      0.00000000	      0.00000000
      8.16700000	     -7.18770417	      7.57001016	    -16.02620883	      0.05170488	      1.31063964	      0.02086582	     77.79654328	      7.91747596	     14.39238380	     95.34963262	      1.66416503	     -4.73156855	    -32.50011086	      0.00000000	     38.18714579	     -7.27564184	    -16.10442171	     58.84739045	      1.02708072	    -20.58318889	    -24.48584522	      0.00000000	    -35.14106123	     -7.72885833	      3.21007948	     57.21579392	      7.86627730	    -22.12727091	     51.57592582	     83.29836934	      0.00000000	      0.00000000	     64.46105919	     -5.85295407	     -6.86984631	     50.18594189	     82.05563145	      0.00000000	      0.00000000
